<?xml version="1.0" encoding="UTF-8"?><svg id="Layer_1" xmlns="http://www.w3.org/2000/svg" viewBox="0 0 283.46 141.73"><defs><style>.cls-1{fill:#6b6baf;}.cls-2{letter-spacing:.3em;}.cls-3{letter-spacing:.29em;}.cls-4{fill:#fec905;}.cls-5{letter-spacing:.28em;}.cls-6{letter-spacing:.3em;}.cls-7{font-family:Montserrat-Medium, Montserrat;font-size:8px;font-weight:500;}.cls-8{letter-spacing:.28em;}.cls-9{letter-spacing:.3em;}.cls-10{letter-spacing:.29em;}.cls-11{fill:#1d1d1b;}</style></defs><g><path class="cls-11" d="m33.11,115.56c0,4.41-3.24,6.99-8.86,6.99h-11.73v-25.74h11.73c4.93,0,8.02,2.57,8.02,6.73,0,2.65-1.32,4.82-3.57,5.81,2.61.85,4.41,3.35,4.41,6.22Zm-17.76-16.14v8.68h8.97c3.24,0,5.15-1.62,5.15-4.3s-1.95-4.38-5.15-4.38h-8.97Zm14.97,15.85c0-2.87-2.21-4.63-5.77-4.63h-9.19v9.27h9.19c3.57,0,5.77-1.77,5.77-4.63Z"/><path class="cls-11" d="m68.34,105.48c0,5.15-3.42,8.64-8.94,8.64h-8.61v8.42h-2.83v-25.74h11.44c5.52,0,8.94,3.53,8.94,8.68Zm-2.83,0c0-3.6-2.32-6.03-6.22-6.03h-8.5v12.03h8.5c3.9,0,6.22-2.39,6.22-5.99Z"/><path class="cls-11" d="m91.58,119.86v2.68h-18.61v-25.74h18.28v2.65h-15.45v8.75h14.75v2.65h-14.75v9.01h15.78Z"/><path class="cls-11" d="m95.37,109.68c0-7.83,5.48-13.35,13.31-13.35,3.6,0,6.88,1.36,9.34,3.9l-1.95,1.8c-1.91-1.99-4.45-3.05-7.32-3.05-6.22,0-10.52,4.38-10.52,10.7s4.3,10.7,10.52,10.7c2.83,0,5.55-1.1,7.54-3.05l1.88,1.88c-2.46,2.5-5.77,3.82-9.49,3.82-7.83,0-13.31-5.52-13.31-13.35Z"/><path class="cls-11" d="m140.93,99.49h-8.97v23.06h-2.79v-23.06h-8.97v-2.68h20.74v2.68Z"/><path class="cls-11" d="m142.4,109.68c0-7.91,5.33-13.39,13.05-13.39s13.09,5.48,13.09,13.39-5.33,13.39-13.09,13.39-13.05-5.48-13.05-13.39Zm23.28,0c0-6.29-4.19-10.7-10.22-10.7s-10.19,4.41-10.19,10.7,4.19,10.7,10.19,10.7,10.22-4.41,10.22-10.7Z"/><path class="cls-11" d="m194.22,105.48c0,5.15-3.42,8.64-8.94,8.64h-8.61v8.42h-2.83v-25.74h11.44c5.52,0,8.94,3.53,8.94,8.68Zm-2.83,0c0-3.6-2.32-6.03-6.22-6.03h-8.5v12.03h8.5c3.9,0,6.22-2.39,6.22-5.99Z"/><path class="cls-11" d="m214.96,116.59h-14.86l-2.65,5.96h-3.09l11.55-25.74h3.24l11.55,25.74h-3.09l-2.65-5.96Zm-13.68-2.65h12.5l-6.25-14.2-6.25,14.2Z"/><path class="cls-11" d="m245.92,96.8v25.74h-2.8v-11.81h-15.45v11.81h-2.83v-25.74h2.83v11.25h15.45v-11.25h2.8Z"/><path class="cls-11" d="m271.48,119.86v2.68h-18.61v-25.74h18.28v2.65h-15.45v8.75h14.75v2.65h-14.75v9.01h15.78Z"/></g><g><g><path class="cls-1" d="m55.43,31.92c-11.79,0-21.67,8.06-24.35,18.92-.06.18-.1.38-.14.6h-7.17v-18.26h-11.16v47.35h11.16v-19.21h7.02c2.17,11.53,12.37,20.26,24.64,20.26,13.84,0,25.07-11.11,25.07-24.82s-11.22-24.82-25.07-24.82Z"/><path class="cls-1" d="m111.03,33.17h-22.66v47.35h11.09v-13.39h11.57c11.09,0,18.13-6.56,18.13-16.98s-7.04-16.98-18.13-16.98Zm-.54,24.28h-11.09v-14.47h11.09c4.67,0,7.64,2.84,7.64,7.24s-2.98,7.24-7.64,7.24Z"/><path class="cls-1" d="m211.06,71.72c-8.59,0-14.41-5.95-14.41-14.88s5.82-14.88,14.41-14.88c4.26,0,7.85,1.42,10.89,4.33l6.83-6.83c-4.94-4.87-10.89-7.37-17.99-7.37-14.81,0-25.3,9.88-25.3,24.76s10.01,24.76,25.5,24.76c7.17,0,13.32-2.43,18.47-7.37l-6.49-7.24c-3.11,3.04-7.37,4.73-11.91,4.73Z"/><polygon class="cls-1" points="231.76 33.17 231.76 42.84 246.17 42.84 246.17 80.52 257.26 80.52 257.26 42.84 271.74 42.84 271.74 33.17 231.76 33.17"/><polygon class="cls-1" points="146.47 62.8 146.6 49.95 146.6 33.17 135.58 33.17 135.58 80.52 145.66 80.52 167.03 51.03 166.83 64.01 166.83 80.52 177.85 80.52 177.85 33.17 167.84 33.17 146.47 62.8"/></g><g><path class="cls-4" d="m70.53,56.27c0,9.7-6.18,16.18-15.22,16.18s-15.22-6.47-15.22-16.18h30.44Z"/><path class="cls-4" d="m60.64,35.85l.52.14c.45.12.71.58.58,1.02l-2.72,9.41c.46.37.88.77,1.27,1.21l5.66-9.39c.24-.39.75-.52,1.15-.29l.47.27c.4.23.53.74.3,1.13l-4.96,8.24c3.74.33,6.68,3.42,6.68,7.18h-1.83c0-2.99-2.47-5.41-5.51-5.41-.22,0-.44.01-.66.04.33.56.6,1.15.83,1.76,1.95.09,3.51,1.67,3.51,3.61h-1.83c0-.77-.49-1.43-1.18-1.69.09.55.13,1.12.13,1.69h-1.83c0-4.97-4.11-9.01-9.18-9.01s-9.18,4.03-9.18,9.01h-1.83c0-5.97,4.93-10.81,11.01-10.81,1.82,0,3.53.43,5.04,1.2l2.52-8.74c.13-.44.59-.69,1.04-.57"/><path class="cls-4" d="m48.36,54.77h0c0-1.99,1.65-3.61,3.68-3.61s3.68,1.62,3.68,3.61h-1.83c0-1-.83-1.81-1.85-1.81s-1.85.81-1.85,1.81h-1.83Z"/><path class="cls-4" d="m44.7,54.77c0-3.98,3.29-7.21,7.34-7.21s7.34,3.23,7.34,7.21h-1.83c0-2.99-2.47-5.41-5.51-5.41s-5.51,2.42-5.51,5.41h-1.83Z"/></g></g><text class="cls-7" transform="translate(67.26 19.27)"><tspan class="cls-9" x="0" y="0">Ю</tspan><tspan class="cls-10" x="11.19" y="0">Р</tspan><tspan class="cls-3" x="19.22" y="0">И</tspan><tspan class="cls-9" x="28.14" y="0">Д</tspan><tspan class="cls-8" x="36.97" y="0">И</tspan><tspan class="cls-9" x="45.79" y="0">Ч</tspan><tspan class="cls-6" x="54.08" y="0">Е</tspan><tspan class="cls-2" x="61.78" y="0">С</tspan><tspan class="cls-5" x="69.92" y="0">К</tspan><tspan class="cls-2" x="77.82" y="0">ИЙ СЕ</tspan><tspan class="cls-10" x="116.21" y="0">Р</tspan><tspan class="cls-9" x="124.24" y="0">ВИС</tspan></text></svg>